HIERARCHY
ROOT Hips
{
  OFFSET 0.000000 0.000000 0.000000
  CHANNELS 6 Xposition Yposition Zposition Xrotation Yrotation Zrotation
  JOINT Spine
  {
    OFFSET -6.423313 -17.000212 -13.334487
    CHANNELS 3 Xrotation Yrotation Zrotation
    JOINT Chest
    {
      OFFSET -6.423313 -17.000212 -13.334487
      CHANNELS 3 Xrotation Yrotation Zrotation
      JOINT Neck
      {
        OFFSET -8.565987 -10.465851 -10.311200
        CHANNELS 3 Xrotation Yrotation Zrotation
        JOINT Head
        {
          OFFSET -6.506337 7.210322 5.531532
          CHANNELS 3 Xrotation Yrotation Zrotation
          End Site
          {
            OFFSET 0.0 5.0 2.0
          }
        }
      }
      JOINT LeftShoulder
      {
        OFFSET 16.191032 -0.222631 -5.090955
        CHANNELS 3 Xrotation Yrotation Zrotation
        JOINT LeftArm
        {
          OFFSET 10.448869 20.915173 -1.238295
          CHANNELS 3 Xrotation Yrotation Zrotation
          JOINT LeftForeArm
          {
            OFFSET 6.900823 23.754111 -0.858906
            CHANNELS 3 Xrotation Yrotation Zrotation
            JOINT LeftHand
            {
              OFFSET -8.000000 0.000000 3.000000
              CHANNELS 3 Xrotation Yrotation Zrotation
              End Site
              {
                OFFSET -3.0 0.0 2.0
              }
            }
          }
        }
      }
      JOINT RightShoulder
      {
        OFFSET -16.191032 0.222631 5.090955
        CHANNELS 3 Xrotation Yrotation Zrotation
        JOINT RightArm
        {
          OFFSET -13.712075 14.695798 8.321647
          CHANNELS 3 Xrotation Yrotation Zrotation
          JOINT RightForeArm
          {
            OFFSET -17.210048 12.326384 -1.738171
            CHANNELS 3 Xrotation Yrotation Zrotation
            JOINT RightHand
            {
              OFFSET 8.000000 0.000000 3.000000
              CHANNELS 3 Xrotation Yrotation Zrotation
              End Site
              {
                OFFSET 3.0 0.0 2.0
              }
            }
          }
        }
      }
    }
  }
  JOINT LeftUpLeg
  {
    OFFSET 12.282434 -0.310965 -0.080493
    CHANNELS 3 Xrotation Yrotation Zrotation
    JOINT LeftLeg
    {
      OFFSET 9.663075 41.630832 -4.887251
      CHANNELS 3 Xrotation Yrotation Zrotation
      JOINT LeftFoot
      {
        OFFSET 0.000000 -8.000000 5.000000
        CHANNELS 3 Xrotation Yrotation Zrotation
        JOINT LeftToeBase
        {
          OFFSET 0.000000 -1.000000 8.000000
          CHANNELS 3 Xrotation Yrotation Zrotation
          End Site
          {
            OFFSET 0.0 -1.0 3.0
          }
        }
      }
    }
  }
  JOINT RightUpLeg
  {
    OFFSET -12.282434 0.310965 0.080493
    CHANNELS 3 Xrotation Yrotation Zrotation
    JOINT RightLeg
    {
      OFFSET -1.472860 28.795469 -20.184857
      CHANNELS 3 Xrotation Yrotation Zrotation
      JOINT RightFoot
      {
        OFFSET 0.000000 -8.000000 5.000000
        CHANNELS 3 Xrotation Yrotation Zrotation
        JOINT RightToeBase
        {
          OFFSET 0.000000 -1.000000 8.000000
          CHANNELS 3 Xrotation Yrotation Zrotation
          End Site
          {
            OFFSET 0.0 -1.0 3.0
          }
        }
      }
    }
  }
}
MOTION
Frames: 7
Frame Time: 0.033333
0.850904 -0.974349 225.000000 0.240362 -22.873793 -4.223839 -25.624095 7.694819 1.439762 -4.496494 -19.084903 -26.905326 -100.743400 -53.241139 15.833050 0.000000 0.000000 0.000000 -1.401544 -0.718666 -20.542790 -54.154699 -3.282739 -36.286443 64.596631 -57.987903 -140.626231 0.000000 0.000000 0.000000 -29.582319 -21.993120 -21.541040 -23.996541 -39.999664 -7.480603 106.195861 61.288136 156.291309 0.000000 0.000000 0.000000 -2.208716 1.289716 5.553446 -123.668803 -34.585453 2.394088 -53.205392 26.913742 -9.674782 0.000000 0.000000 0.000000 19.014050 -3.350293 -8.816625 -145.436622 -35.139359 9.513015 -50.168121 13.487921 -4.389988 0.000000 0.000000 0.000000
0.938307 -1.143851 226.000000 0.030164 -7.314124 -3.757407 -24.907180 7.943077 0.424251 -5.614732 -10.646164 -23.718004 -69.110362 -43.835927 2.620355 0.000000 0.000000 0.000000 -15.590496 3.569177 -20.086423 -55.944379 5.437167 -21.004779 69.039365 -61.732242 -134.698404 0.000000 0.000000 0.000000 -12.677064 0.261730 -26.117854 -8.105041 -21.661390 -21.396150 45.314168 55.266534 132.239032 0.000000 0.000000 0.000000 -3.261943 2.129615 9.072560 -121.641725 -27.343940 1.376050 -48.944175 23.892468 -7.562279 0.000000 0.000000 0.000000 16.082546 -1.635946 -4.683320 -135.590611 -13.078362 2.268751 -41.396792 6.671696 -1.612489 0.000000 0.000000 0.000000
0.988304 -1.301925 227.000000 -0.000916 -4.014764 -3.535154 -22.654055 7.163872 0.664805 -6.420754 -7.179261 -24.342922 -66.292148 -42.978650 -0.786204 0.000000 0.000000 0.000000 -16.894185 3.630047 -21.668376 -46.948196 12.016462 -5.157549 56.018766 -59.708791 -129.030700 0.000000 0.000000 0.000000 -14.374620 -0.270819 -29.457940 -3.792668 -16.827515 -29.719921 19.026031 49.622098 115.561396 0.000000 0.000000 0.000000 -2.101942 1.912229 10.146786 -122.249174 -22.002579 1.218122 -47.936811 26.359841 -8.110525 0.000000 0.000000 0.000000 12.074493 -1.751061 -4.194344 -134.108070 -6.633059 1.058779 -40.314132 6.131819 -1.420539 0.000000 0.000000 0.000000
0.998900 -1.446990 228.000000 -0.000849 -3.517435 -3.652047 -17.325267 5.487409 0.730720 -6.475182 -7.202324 -24.563691 -67.878279 -44.061541 -2.665858 0.000000 0.000000 0.000000 -13.101432 2.753203 -20.415724 -39.744651 13.181766 2.398969 38.441748 -58.315392 -112.876141 0.000000 0.000000 0.000000 -15.147391 -0.044242 -31.878305 -2.570428 -15.769294 -33.305759 11.764329 47.064870 109.886460 0.000000 0.000000 0.000000 -0.968760 1.430429 9.332678 -124.546458 -6.172974 0.462276 -44.621434 30.000000 -8.759442 0.000000 0.000000 0.000000 8.373653 -2.394822 -4.684040 -136.487092 -5.221484 0.944730 -41.323665 4.762408 -1.147212 0.000000 0.000000 0.000000
0.969673 -1.577597 229.000000 0.010480 -3.187269 -4.286327 -13.994700 5.196798 -0.600235 -5.587175 -9.968852 -23.081370 -68.988222 -44.134490 0.380567 0.000000 0.000000 0.000000 -10.883197 1.907794 -21.587416 -40.264105 14.726468 5.465621 32.594163 -59.149852 -100.179992 0.000000 0.000000 0.000000 -14.634085 1.669957 -33.400292 -1.627909 -14.942137 -36.341258 6.380983 44.757892 104.129679 0.000000 0.000000 0.000000 -1.684372 1.526397 8.365054 -123.169844 6.983080 -0.438693 -46.002496 30.000000 -8.732758 0.000000 0.000000 0.000000 7.480472 -2.348906 -4.458680 -136.019716 -2.881276 0.508941 -43.173089 2.534653 -0.653790 0.000000 0.000000 0.000000
0.901788 -1.692441 230.000000 0.016481 -2.205917 -5.693020 -9.035193 4.203429 -1.511145 -5.512030 -9.717846 -22.586615 -73.905426 -46.143391 2.183049 0.000000 0.000000 0.000000 -11.656597 2.428399 -19.756137 -45.436655 15.697818 3.271667 17.791049 -58.822550 -66.368901 0.000000 0.000000 0.000000 -11.506848 6.567434 -33.185048 -3.565037 -19.081617 -33.875188 9.079019 46.012313 106.771347 0.000000 0.000000 0.000000 -1.783244 1.395654 7.202081 -121.845651 16.990694 -0.875507 -44.297316 25.465033 -6.940871 0.000000 0.000000 0.000000 8.631930 -2.849910 -5.490029 -137.435909 -3.372953 0.638927 -44.789741 1.661561 -0.453641 0.000000 0.000000 0.000000
0.797952 -1.790375 231.000000 0.004574 -1.479664 -6.603797 -7.107919 3.922565 -2.010405 -5.378707 -9.416335 -21.827720 -74.253257 -46.271335 2.348568 0.000000 0.000000 0.000000 -11.235774 2.405756 -19.094961 -45.184804 16.648115 5.376036 9.806363 -54.336259 -53.237580 0.000000 0.000000 0.000000 -10.449278 8.261037 -33.129728 -4.339447 -19.998683 -32.146620 8.886215 45.818129 107.890712 0.000000 0.000000 0.000000 -1.645278 1.187093 5.981639 -121.929176 21.025062 -1.103201 -42.997350 25.490493 -6.634854 0.000000 0.000000 0.000000 9.514180 -2.363800 -4.828678 -137.388488 -1.667518 0.315091 -44.914263 -1.926759 0.528309 0.000000 0.000000 0.000000
